# xmcd
#
# Track frame offsets: 
#        150
#        12474
#        27249
#        41048
#        60682
#        74678
#        90940
#        114764
#        134363
#        145510
#        163832
#        178343
#
# Disc length: 2827 seconds
#
# Revision: 0
# Processed by: cddbd v1.5.2PL0 Copyright (c) Steve Scherf et al.
# Submitted via: ExactAudioCopyFreeDBPlugin 1.0
#
DISCID=a40b090c
DTITLE=Douwe Bob - Fool Bar
DYEAR=2016
DGENRE=Other
TTITLE0=Slow Down
TTITLE1=How Lucky We Are
TTITLE2=History
TTITLE3=Settle Down
TTITLE4=It Ain't Easy
TTITLE5=Get Real
TTITLE6=Jacob's Song
TTITLE7=Cynic
TTITLE8=A Damn Good Time
TTITLE9=Take It Off
TTITLE10=Black Jolene
TTITLE11=Love On The Rocks
EXTD=
EXTT0=
EXTT1=
EXTT2=
EXTT3=
EXTT4=
EXTT5=
EXTT6=
EXTT7=
EXTT8=
EXTT9=
EXTT10=
EXTT11=
PLAYORDER=
